<svg width="400" height="400" viewBox="0 0 400 400" fill="none" xmlns="http://www.w3.org/2000/svg">
<g clip-path="url(#clip0_1463_739)">
<path d="M221.027 200.001L252.223 235.615L294.17 262.39L301.484 200.22L294.17 139.438L251.418 162.961L221.027 200.001Z" fill="#00832D"/>
<path d="M40 256.618V309.584C40 321.693 49.8194 331.5 61.9429 331.5H114.971L125.943 291.466L114.971 256.618L78.5829 245.66L40 256.618Z" fill="#0066DA"/>
<path d="M114.971 68.5L40 143.382L78.5829 154.34L114.971 143.382L125.76 109.009L114.971 68.5Z" fill="#E94235"/>
<path d="M114.971 143.383H40V256.619H114.971V143.383Z" fill="#2684FC"/>
<path d="M342.081 100.207L294.173 139.438V262.39L342.301 301.804C349.505 307.429 360.038 302.297 360.038 293.147V108.681C360.038 99.4216 349.267 94.3443 342.081 100.207ZM221.03 200.001V256.619H114.973V331.501H272.23C284.353 331.501 294.173 321.693 294.173 309.584V262.39L221.03 200.001Z" fill="#00AC47"/>
<path d="M272.23 68.5H114.973V143.382H221.03V200L294.173 139.473V90.4167C294.173 78.3077 284.353 68.5 272.23 68.5Z" fill="#FFBA00"/>
</g>
<defs>
<clipPath id="clip0_1463_739">
<rect width="320" height="263" fill="white" transform="translate(40 68.5)"/>
</clipPath>
</defs>
</svg>
