<svg width="98" height="98" viewBox="0 0 98 98" fill="none" xmlns="http://www.w3.org/2000/svg">
<path fill-rule="evenodd" clip-rule="evenodd" d="M37.7328 43.5312C39.0133 40.7923 41.298 38.6168 44.113 37.4784L37.7328 43.5312ZM36.6121 48.3488L48.9823 36.6133C49.5194 36.6297 50.0476 36.6814 50.5647 36.7661L36.6821 49.9364C36.634 49.5001 36.6094 49.0567 36.6094 48.6076C36.6094 48.5211 36.6103 48.4348 36.6121 48.3488ZM37.4306 52.9794C37.5856 53.3754 37.761 53.7612 37.9556 54.1354L54.6897 38.2599C54.326 38.0457 53.9501 37.8502 53.5631 37.6746L37.4306 52.9794ZM56.8923 39.9246L39.5024 56.4223C39.7633 56.7259 40.039 57.0164 40.3286 57.2926L57.7182 40.7952C57.4575 40.4914 57.1818 40.2009 56.8923 39.9246ZM59.2641 43.0816L42.5308 58.9564C42.8946 59.1705 43.2706 59.366 43.6576 59.5415L59.7889 44.2378C59.634 43.8418 59.4586 43.4559 59.2641 43.0816ZM60.537 47.2824L46.6577 60.4497C47.1749 60.5343 47.7033 60.5858 48.2406 60.602L60.6066 48.8706C60.6084 48.7831 60.6094 48.6955 60.6094 48.6076C60.6094 48.1597 60.5848 47.7176 60.537 47.2824ZM53.1109 59.7347L59.4836 53.689C58.2034 56.4239 55.9218 58.5964 53.1109 59.7347Z" fill="#877A45"/>
<path fill-rule="evenodd" clip-rule="evenodd" d="M48.6 1.2C41.7428 1.2 35.2271 2.65574 29.344 5.27447L28.856 4.17817C34.8898 1.4924 41.5714 0 48.6 0C55.6286 0 62.3102 1.4924 68.344 4.17818L67.856 5.27447C61.9729 2.65574 55.4572 1.2 48.6 1.2ZM48.6 13.2C42.1511 13.2 36.1067 14.9239 30.9004 17.9355L30.2996 16.8968C35.6835 13.7823 41.9345 12 48.6 12C55.2655 12 61.5164 13.7823 66.9004 16.8968L66.2996 17.9355C61.0933 14.9239 55.0489 13.2 48.6 13.2ZM48.6 25.2C35.6765 25.2 25.2 35.6765 25.2 48.6C25.2 61.5235 35.6765 72 48.6 72C61.5235 72 72 61.5235 72 48.6C72 35.6765 61.5235 25.2 48.6 25.2ZM24 48.6C24 35.0138 35.0138 24 48.6 24C62.1862 24 73.2 35.0138 73.2 48.6C73.2 62.1862 62.1862 73.2 48.6 73.2C35.0138 73.2 24 62.1862 24 48.6ZM5.27447 29.344C2.65574 35.2271 1.2 41.7428 1.2 48.6C1.2 55.4572 2.65574 61.9729 5.27447 67.856L4.17817 68.344C1.4924 62.3102 0 55.6286 0 48.6C0 41.5714 1.4924 34.8898 4.17817 28.856L5.27447 29.344ZM96 48.6C96 41.7428 94.5443 35.2271 91.9255 29.344L93.0218 28.856C95.7076 34.8898 97.2 41.5714 97.2 48.6C97.2 55.6286 95.7076 62.3102 93.0218 68.344L91.9255 67.856C94.5443 61.9729 96 55.4572 96 48.6ZM17.9355 30.9004C14.9239 36.1067 13.2 42.1511 13.2 48.6C13.2 55.0489 14.9239 61.0933 17.9355 66.2996L16.8968 66.9004C13.7823 61.5164 12 55.2655 12 48.6C12 41.9345 13.7823 35.6835 16.8968 30.2996L17.9355 30.9004ZM84 48.6C84 42.1511 82.2761 36.1067 79.2645 30.9004L80.3032 30.2996C83.4177 35.6835 85.2 41.9345 85.2 48.6C85.2 55.2655 83.4177 61.5165 80.3032 66.9004L79.2645 66.2996C82.2761 61.0933 84 55.0489 84 48.6ZM30.9004 79.2645C36.1067 82.2761 42.1511 84 48.6 84C55.0489 84 61.0933 82.2761 66.2996 79.2645L66.9004 80.3032C61.5164 83.4177 55.2655 85.2 48.6 85.2C41.9345 85.2 35.6836 83.4177 30.2996 80.3032L30.9004 79.2645ZM29.344 91.9255C35.2271 94.5443 41.7428 96 48.6 96C55.4572 96 61.9729 94.5443 67.856 91.9255L68.344 93.0218C62.3102 95.7076 55.6286 97.2 48.6 97.2C41.5714 97.2 34.8898 95.7076 28.856 93.0218L29.344 91.9255Z" fill="#877A45"/>
<path fill-rule="evenodd" clip-rule="evenodd" d="M85.6866 86.536L74.7109 75.5602L74.7109 86.1117L73.5109 86.1117L73.5109 73.5117L86.1109 73.5117L86.1109 74.7117L75.5594 74.7117L86.5352 85.6875L85.6866 86.536Z" fill="#877A45"/>
<path fill-rule="evenodd" clip-rule="evenodd" d="M85.6866 10.6876L74.7109 21.6634L74.7109 11.1119L73.5109 11.1119L73.5109 23.7119L86.1109 23.7119L86.1109 22.5119L75.5594 22.5119L86.5352 11.5362L85.6866 10.6876Z" fill="#877A45"/>
<path fill-rule="evenodd" clip-rule="evenodd" d="M11.536 86.536L22.5118 75.5602L22.5118 86.1117L23.7118 86.1117L23.7118 73.5117L11.1118 73.5117L11.1118 74.7117L21.6632 74.7117L10.6875 85.6875L11.536 86.536Z" fill="#877A45"/>
<path fill-rule="evenodd" clip-rule="evenodd" d="M11.536 10.6876L22.5118 21.6634L22.5118 11.1119L23.7118 11.1119L23.7118 23.7119L11.1118 23.7119L11.1118 22.5119L21.6632 22.5119L10.6875 11.5362L11.536 10.6876Z" fill="#877A45"/>
</svg>
