<svg width="400" height="400" viewBox="0 0 400 400" fill="none" xmlns="http://www.w3.org/2000/svg">
<path d="M239.834 87.9598C239.834 105.705 233.297 130.118 223.661 162.925L216.767 188.122L238.585 173.838C280.055 144.651 305.099 133.696 321.676 133.696C340.531 133.696 360 147.201 360 174.059C360 208.225 323.607 217.93 253.345 219.127L227.074 220.365L247.792 236.895C296.979 274.895 314.03 293.511 314.03 317.099C314.03 335.663 296.817 355 275.474 355C243.408 355 228.914 321.601 209.375 264.899L199.416 240.253L190.045 264.899C168.147 329.304 151.293 354.407 123.358 354.407C100.835 354.407 84.8027 333.886 84.8027 316.508C84.8027 290.548 108.342 268.97 151.629 236.895L172.347 220.365L146.667 219.127C72.0428 218.524 40 207.766 40 173.466C40 146.609 60.0703 133.103 78.5674 133.103C100.904 133.103 125.266 148.206 161.427 173.838L183.244 188.122L176.349 162.925C165.903 128.34 160.999 102.969 160.999 87.9598C160.999 64.4642 174.21 45 200.005 45C226.391 45 239.834 64.4642 239.834 87.9598Z" fill="white"/>
</svg>
